<?xml version="1.0" encoding="UTF-8"?><svg id="a" xmlns="http://www.w3.org/2000/svg" viewBox="0 0 1103.12 252.77"><defs><style>.e{fill:none;}.f{font-family:RedHatDisplay-Bold, Red Hat Display;font-size:170px;}.f,.g,.h,.i{fill:#29abe2;}.j{fill:#1f80aa;}.h{opacity:.33;}.i{opacity:.46;}</style></defs><g id="b"><polygon class="j" points="294.21 241.04 12.88 241.04 27.1 225.25 283.1 225.25 294.21 241.04"/><rect class="j" x="35.11" y="209.45" width="239.99" height="15.8"/><polygon class="g" points="154.92 240.88 12.88 241.04 27.1 225.25 155.1 225.25 154.92 240.88"/><rect class="g" x="35.11" y="209.45" width="119.99" height="15.8"/></g><g id="c"><rect class="g" x="51.08" y="89.17" width="31.71" height="120.28"/><rect class="g" x="107.12" y="89.17" width="31.71" height="120.28"/><rect class="g" x="171.19" y="89.17" width="31.71" height="120.28"/><rect class="g" x="227.34" y="89.17" width="31.71" height="120.28"/><rect class="j" x="243.19" y="89.17" width="15.85" height="120.28"/><rect class="j" x="187.05" y="89.17" width="15.85" height="120.28"/><rect class="j" x="122.97" y="89.17" width="15.85" height="120.28"/><rect class="j" x="66.94" y="89.17" width="15.85" height="120.28"/></g><g id="d"><polygon class="g" points="27.64 72.46 282.56 72.3 156.77 9.04 27.64 72.46"/><polygon class="j" points="61.41 65.04 248.79 65.04 155.1 18.28 61.41 65.04"/><polygon class="j" points="43.19 89.17 267.27 89.17 282.56 72.46 27.64 72.46 43.19 89.17"/><polygon class="i" points="43.19 89.17 155.1 89.17 155.1 72.46 27.64 72.46 43.19 89.17"/><polygon class="h" points="72.4 65.04 155.1 65.04 155.1 24.55 72.4 65.04"/></g><text class="f" transform="translate(336.4 209.45)"><tspan x="0" y="0">PINAKES</tspan></text><g><polygon class="e" points="704.62 158.45 688.94 117.59 688.94 158.45 704.62 158.45"/><polygon class="j" points="688.94 90.45 688.94 117.59 704.62 158.45 688.94 158.45 688.94 178.17 712.1 178.17 724.17 209.45 750.86 209.45 702.58 90.45 688.94 90.45"/><polygon class="j" points="867.65 90.45 837.56 90.45 785.54 143.83 785.54 90.45 760.89 90.45 760.89 209.45 785.54 209.45 785.54 153.69 837.39 209.45 870.37 209.45 810.19 147.06 867.65 90.45"/><polygon class="j" points="904.03 159.81 948.06 159.81 948.06 139.07 904.03 139.07 904.03 111.87 970.84 111.87 970.84 90.45 879.38 90.45 879.38 209.45 971.52 209.45 971.52 188.03 904.03 188.03 904.03 159.81"/><path class="j" d="M1046.15,139.58l-22.44-3.74c-12.24-1.87-17-5.61-17-12.92,0-8.16,8.5-13.43,21.76-13.43s24.82,4.59,37.57,14.28l13.26-18.36c-13.26-10.37-31.79-16.66-49.13-16.66-28.9,0-46.92,13.77-46.92,36.04,0,17.34,10.71,28.39,31.11,31.79l23.63,4.08c14.11,2.38,19.55,6.46,19.55,14.62,0,9.18-9.52,14.96-24.31,14.96s-26.35-5.27-40.29-17.34l-14.11,17.68c14.28,13.09,33.49,20.57,52.7,20.57,30.6,0,50.15-14.79,50.15-38.08,0-18.36-11.73-29.58-35.53-33.49Z"/></g></svg>