<?xml version="1.0" encoding="utf-8"?>
<!-- Generator: Adobe Illustrator 26.1.0, SVG Export Plug-In . SVG Version: 6.00 Build 0)  -->
<svg version="1.1" id="a" xmlns="http://www.w3.org/2000/svg" xmlns:xlink="http://www.w3.org/1999/xlink" x="0px" y="0px"
	 viewBox="0 0 1103.1 252.8" style="enable-background:new 0 0 1103.1 252.8;" xml:space="preserve">
<style type="text/css">
	.st0{fill:#1F80AA;}
	.st1{fill:#29ABE2;}
	.st2{opacity:0.46;fill:#29ABE2;enable-background:new    ;}
	.st3{opacity:0.33;fill:#29ABE2;enable-background:new    ;}
</style>
<g id="b">
	<polygon class="st0" points="294.2,241 12.9,241 27.1,225.2 283.1,225.2 	"/>
	<rect x="35.1" y="209.4" class="st0" width="240" height="15.8"/>
	<polygon class="st1" points="154.9,240.9 12.9,241 27.1,225.2 155.1,225.2 	"/>
	<rect x="35.1" y="209.4" class="st1" width="120" height="15.8"/>
</g>
<g id="c">
	<rect x="51.1" y="89.2" class="st1" width="31.7" height="120.3"/>
	<rect x="107.1" y="89.2" class="st1" width="31.7" height="120.3"/>
	<rect x="171.2" y="89.2" class="st1" width="31.7" height="120.3"/>
	<rect x="227.3" y="89.2" class="st1" width="31.7" height="120.3"/>
	<rect x="243.2" y="89.2" class="st0" width="15.9" height="120.3"/>
	<rect x="187.1" y="89.2" class="st0" width="15.9" height="120.3"/>
	<rect x="123" y="89.2" class="st0" width="15.9" height="120.3"/>
	<rect x="66.9" y="89.2" class="st0" width="15.8" height="120.3"/>
</g>
<g id="d">
	<polygon class="st1" points="27.6,72.5 282.6,72.3 156.8,9 	"/>
	<polygon class="st0" points="61.4,65 248.8,65 155.1,18.3 	"/>
	<polygon class="st0" points="43.2,89.2 267.3,89.2 282.6,72.5 27.6,72.5 	"/>
	<polygon class="st2" points="43.2,89.2 155.1,89.2 155.1,72.5 27.6,72.5 	"/>
	<polygon class="st3" points="72.4,65 155.1,65 155.1,24.5 	"/>
</g>
<g>
	<polygon class="st0" points="867.7,90.4 837.6,90.4 785.5,143.8 785.5,90.4 760.9,90.4 760.9,209.4 785.5,209.4 785.5,153.7 
		837.4,209.4 870.4,209.4 810.2,147.1 	"/>
	<polygon class="st0" points="904,159.8 948.1,159.8 948.1,139.1 904,139.1 904,111.9 970.8,111.9 970.8,90.4 879.4,90.4 
		879.4,209.4 971.5,209.4 971.5,188 904,188 	"/>
	<path class="st0" d="M1046.2,139.6l-22.4-3.7c-12.2-1.9-17-5.6-17-12.9c0-8.2,8.5-13.4,21.8-13.4c13.3,0,24.8,4.6,37.6,14.3
		l13.3-18.4c-13.3-10.4-31.8-16.7-49.1-16.7c-28.9,0-46.9,13.8-46.9,36c0,17.3,10.7,28.4,31.1,31.8l23.6,4.1
		c14.1,2.4,19.6,6.5,19.6,14.6c0,9.2-9.5,15-24.3,15s-26.3-5.3-40.3-17.3l-14.1,17.7c14.3,13.1,33.5,20.6,52.7,20.6
		c30.6,0,50.2-14.8,50.2-38.1C1081.7,154.7,1069.9,143.5,1046.2,139.6L1046.2,139.6z"/>
	<path class="st1" d="M674,90.5h28.6l48.3,119h-26.7l-12.1-31.3H663l-12.2,31.3h-25.7L674,90.5z M704.6,158.5l-16.8-43.9l-17.2,43.9
		H704.6z"/>
	<polygon class="st0" points="688.9,90.4 688.9,117.6 704.6,158.4 688.9,158.4 688.9,178.2 712.1,178.2 724.2,209.4 750.9,209.4 
		702.6,90.4 	"/>
	<path class="st1" d="M532.6,90.5l59.2,77v-77h23.1v119h-21.8l-60.7-79.6v79.6h-23.3v-119H532.6z"/>
	<path class="st1" d="M462.9,90.5h24.6v119h-24.6V90.5z"/>
	<path class="st1" d="M347.1,90.5h59.7c23.5,0,39.9,15.5,39.9,37.4c0,21.2-16.8,36.7-39.9,36.7h-35v44.9h-24.6V90.5z M371.8,111.7
		v32.5h32.3c10.7,0,17.7-6.5,17.7-16.1c0-9.9-7-16.3-17.7-16.3H371.8z"/>
</g>
</svg>
